<svg xmlns="http://www.w3.org/2000/svg" xmlns:xlink="http://www.w3.org/1999/xlink" version="1.1" width="1000" height="1000" viewBox="0 0 1000 1000" xml:space="preserve">
<desc>Created with Fabric.js 3.5.0</desc>
<defs>
</defs>
<rect x="0" y="0" width="100%" height="100%" fill="#ffffff"/>
<g transform="matrix(48.7624 0 0 48.7624 499.9998 499.9999)" id="186598">
<path style="stroke: none; stroke-width: 1; stroke-dasharray: none; stroke-linecap: butt; stroke-dashoffset: 0; stroke-linejoin: miter; stroke-miterlimit: 4; is-custom-font: none; font-file-url: none; fill: rgb(255,87,51); fill-rule: nonzero; opacity: 1;" vector-effect="non-scaling-stroke" transform=" translate(-9.3215, -9.2655)" d="M 18.594 15.242 c 0.223 0.894 -0.335 1.788 -1.23 2.011 l -4.244 1.229 c -0.894 0.223 -1.788 -0.335 -2.011 -1.229 c -0.224 -0.894 0.335 -1.787 1.229 -2.122 l 4.133 -1.118 c 0.894 -0.223 1.788 0.336 2.123 1.23 z m -5.698 -9.607 c 0.67 0.67 0.67 1.676 0 2.346 L 9.88 10.997 c -0.67 0.67 -1.676 0.67 -2.346 0 c -0.67 -0.67 -0.67 -1.676 0 -2.346 l 3.016 -3.016 c 0.67 -0.67 1.676 -0.67 2.346 0 z M 3.177 0.049 c 0.894 0.224 1.453 1.117 1.23 2.011 L 3.401 6.193 c -0.224 0.894 -1.117 1.453 -2.123 1.23 C 0.384 7.199 -0.174 6.305 0.049 5.412 l 1.117 -4.134 C 1.39 0.384 2.284 -0.174 3.177 0.049 z" stroke-linecap="round"/>
</g>
</svg>